<svg xmlns="http://www.w3.org/2000/svg" xmlns:xlink="http://www.w3.org/1999/xlink" id="eRqBOWDsxid1" shape-rendering="geometricPrecision" text-rendering="geometricPrecision" viewBox="0 0 1440 901.47"><rect width="1440" height="300" rx="0" ry="0" transform="translate(0 600)" fill="#ded7b9" stroke-width="0"/><g transform="translate(.3013-.42179)"><g transform="matrix(3.225585 0 0 3.30442 149.59584-43.000431)"><path d="M46.8,190.207735l24.503383,49.479841l15.503905-14.750003-40.007289-34.72984l5-.000001l35.007289,34.729839" transform="translate(-.3013 0.421793)" fill="#960" stroke-width="2.88"/><path d="M98.522181,263.348229q29.5,0,29.5,0l-29.5-59.500001-30.5,59.5q1,0,30.5.000001Z" transform="translate(-57.020098-23.277557)" fill="#b97f00" stroke-width="2.88"/><g transform="matrix(.183783 0 0 0.180128 33.870604 148.076555)"><path d="M98.522181,203.848229l54.411997,55.516077h-54.411997v-55.516077Z" transform="translate(-57.016192-23.238871)" fill="#a86e00" stroke-width="2.88"/><path d="M95.681612,259.364306q26.752565,0,26.752565,0L95.681612,203.848228L68.022181,259.364305q.906867,0,27.659431.000001Z" transform="translate(-53.722186-23.126907)" fill="#cd8f00" stroke-width="2.88"/></g></g><g transform="matrix(2.388066 0 0 2.133554 15.526309 125.920028)"><path d="M46.8,190.207735l24.503383,49.479841l15.503905-14.750003-40.007289-34.72984l5-.000001l35.007289,34.729839" transform="translate(-.3013 0.421793)" fill="#960" stroke-width="2.88"/><path d="M98.522181,263.348229q29.5,0,29.5,0l-29.5-59.500001-30.5,59.5q1,0,30.5.000001Z" transform="translate(-57.020098-23.277557)" fill="#b97f00" stroke-width="2.88"/><g transform="matrix(.183783 0 0 0.180128 33.870604 148.076555)"><path d="M98.522181,203.848229l54.411997,55.516077h-54.411997v-55.516077Z" transform="translate(-57.016192-23.238871)" fill="#a86e00" stroke-width="2.88"/><path d="M95.681612,259.364306q26.752565,0,26.752565,0L95.681612,203.848228L68.022181,259.364305q.906867,0,27.659431.000001Z" transform="translate(-53.722186-23.126907)" fill="#cd8f00" stroke-width="2.88"/></g></g><g transform="matrix(5.062007 0 0 4.926113 353.158692-367.540856)"><path d="M46.8,190.207735l24.503383,49.479841l15.503905-14.750003-40.007289-34.72984l5-.000001l35.007289,34.729839" transform="translate(-.3013 0.421793)" fill="#960" stroke-width="2.88"/><path d="M98.522181,263.348229q29.5,0,29.5,0l-29.5-59.500001-30.5,59.5q1,0,30.5.000001Z" transform="translate(-57.020098-23.277557)" fill="#b97f00" stroke-width="2.88"/><g transform="matrix(.183783 0 0 0.180128 33.870604 148.076555)"><path d="M98.522181,203.848229l54.411997,55.516077h-54.411997v-55.516077Z" transform="translate(-57.016192-23.238871)" fill="#a86e00" stroke-width="2.88"/><path d="M95.681612,259.364306q26.752565,0,26.752565,0L95.681612,203.848228L68.022181,259.364305q.906867,0,27.659431.000001Z" transform="translate(-53.722186-23.126907)" fill="#cd8f00" stroke-width="2.88"/></g></g></g><path d="M977.401199,600q-74.237361,0-73.020355,0c1.217006,0-94.926463,10.159661-76.671374,51.565624q18.255089,41.405963,76.671374,66.850916q65.718319,30.425148,8.519041,70.586344c-57.199278,40.161196-129.002629,64.501315-133.870652,91.275445Q774.16121,907.052459,775.378216,900h90.058438q10.953053-17.287659,93.709456-70.83592t29.208143-110.74754l-104.66251-66.850916q-8.519041-18.339498,20.689101-19.556504t73.020355-32.00912Z" fill="#3f5787" stroke-width="2.88"/><g transform="translate(179.016473 382.70549)"><path d="M1022.83842,404.024754l159.59883-103.02816-32.86787-25.599019-101.764009,39.950271.000001,47.592058-31.906799,23.386761l6.939847,17.698089Z" transform="translate(.000001 0)" fill="#815600" stroke-width="2.88"/><path d="M949.024679,387.590814l4.303745,16.43394l31.585523-26.231095l23.517216-.000001l14.407257-14.853752-40.101075-.000003-33.712666,24.650911Z" transform="translate(.000002 0.000003)" fill="#960" stroke-width="2.88"/><path d="M988.354254,404.024751l7.712781-16.433937l26.771384-24.650913h-40.101074l-33.712668,24.65091l4.303745,16.43394-31.305903.63207l9.069888-18.330159l29.486662-24.018829l16.822129-46.95999l71.344104.184258-.145365,47.825003-31.683008,23.926961l5.985712,16.694435-34.548387.046251" transform="translate(.000002 0.000003)" fill="#b97f00" stroke-width="2.88"/><path d="M1149.569378,272.785477l-67.886328-.184258-104.281853,40.134528l71.19874.184258l100.969441-40.134528Z" transform="translate(.000003 2.612099)" fill="#815600" stroke-width="2.88"/><g transform="matrix(.787497 0 0 0.885504 199.762481 88.773457)"><g transform="translate(.000001 0.000001)"><path d="M988.469633,186.427838l-28.87087,72.65517h31.54764l-2.67677-72.65517Z" transform="matrix(-1 0 0 1 2057.455111-1.779994)" fill="#960" stroke-width="2.88"/><path d="M988.354253,185.062807l41.345499,4.958723-1.191677-18.541462c-8.865984-.293288-28.771705,8.025223-40.153822,13.582739Z" transform="matrix(-1 0 0 1 2057.415632-.000006)" fill="#960" stroke-width="2.88"/><path d="M1069.104641,185.065448l-.043261,72.394097-16.640843,17.93803h-23.512981l-.008079-90.10122l40.205164-.230907Z" transform="translate(.000001 0)" fill="#960" stroke-width="2.88"/></g><g><path d="M989.446281,187.838445l-30.300171,72.41745l30.64558-.043753-.345409-72.373697Z" transform="translate(-.125088-2.775741)" fill="#b97f00" stroke-width="2.88"/><path d="M989.221193,185.197732l39.658739,1.913666l1.027625-15.631338c-8.865984-.293288-29.304247,8.160156-40.686364,13.717672Z" transform="translate(0-.115028)" fill="#b97f00" stroke-width="2.88"/><path d="M988.354253,257.459539l20.076911,17.938036h21.476392l-1.33211-90.101219-39.620673-.233555-.60052,72.396738Z" transform="translate(.324033 0)" fill="#b97f00" stroke-width="2.88"/></g></g></g><rect width="1440" height="900" rx="0" ry="0" transform="translate(.000001 0)" opacity="0" fill="#d2dbed" stroke-width="0"/></svg>